PathFileType	4	(X/Y/Z)	 s11c0302.trc
DataRate	CameraRate	NumFrames	NumMarkers	Units	OrigDataRate	OrigDataStartFrame	OrigNumFrames
200	200	5	48	mm	200	1001	2000
Frame#	Time	racr			lacr			c7			jug			rlel			rdr			llel			ldr			s2			lic			ric			lasi			rasi			rpsi			lpsi			rgt			lgt			rth1			rth2			rth3			rth4			rlfc			rmfc			rsh1			rsh2			rsh3			rsh4			rlmal			rcal			rtoe			rmt5			lth1			lth2			lth4			lth3			llfc			lmfc			llmal			lcal			lmt5			lsh1			lsh2			lsh3			lsh4			ltoe			SBIKE			LBIKE			RBIKE			
		X1	Y1	Z1	X2	Y2	Z2	X3	Y3	Z3	X4	Y4	Z4	X5	Y5	Z5	X6	Y6	Z6	X7	Y7	Z7	X8	Y8	Z8	X9	Y9	Z9	X10	Y10	Z10	X11	Y11	Z11	X12	Y12	Z12	X13	Y13	Z13	X14	Y14	Z14	X15	Y15	Z15	X16	Y16	Z16	X17	Y17	Z17	X18	Y18	Z18	X19	Y19	Z19	X20	Y20	Z20	X21	Y21	Z21	X22	Y22	Z22	X23	Y23	Z23	X24	Y24	Z24	X25	Y25	Z25	X26	Y26	Z26	X27	Y27	Z27	X28	Y28	Z28	X29	Y29	Z29	X30	Y30	Z30	X31	Y31	Z31	X32	Y32	Z32	X33	Y33	Z33	X34	Y34	Z34	X35	Y35	Z35	X36	Y36	Z36	X37	Y37	Z37	X38	Y38	Z38	X39	Y39	Z39	X40	Y40	Z40	X41	Y41	Z41	X42	Y42	Z42	X43	Y43	Z43	X44	Y44	Z44	X45	Y45	Z45	X46	Y46	Z46	X47	Y47	Z47	X48	Y48	Z48	
1001	5.0050	760.768468	1377.608569	-1.025883	809.486528	1382.782983	-339.630168	760.140586	1471.312906	-177.298439	751.034650	1290.658733	-182.074729	646.933426	1129.141925	91.308399	794.760636	936.792250	-27.642470	674.938226	1176.056734	-549.456291	796.145019	923.802181	-428.000535	175.573332	1324.122210	-288.708300	421.025898	1266.154363	-438.369387	350.785932	1326.253721	-47.816580	427.188803	1200.573487	-390.582537	378.144160	1256.076685	-82.270686	221.849838	1394.671774	-240.394863	238.835121	1377.518055	-331.048837	304.624496	1209.001851	-24.948506	282.221087	1158.691068	-453.387794	419.082280	1118.880463	-6.787070	501.605090	1084.750073	-7.307477	556.431676	1015.710637	-10.241947	522.759253	1113.116826	-19.239896	641.531369	948.418738	-19.450618	660.147479	931.997517	-151.091402	551.881803	814.782625	-19.633356	514.880527	738.267505	-43.344628	443.464758	688.871114	-53.345261	539.213395	725.330613	-71.828350	339.340286	588.381010	-78.207824	281.537940	615.535951	-129.355137	486.069392	413.250431	-132.036596	413.682964	432.700609	-63.756465	307.869714	1027.830621	-460.020489	336.333374	948.489514	-450.674507	372.302273	950.844669	-443.164105	320.758341	860.121560	-446.556952	323.948569	717.023968	-426.147950	335.676076	703.285157	-297.421491	112.875123	341.776629	-414.975744	51.113996	343.807285	-380.714226	182.176218	180.659939	-444.950435	257.756294	608.925218	-448.706729	240.234108	526.284681	-436.591908	182.335581	459.326429	-432.987309	269.907235	513.633815	-414.854009	271.181321	141.945575	-375.456284	-204.243519	953.583598	-261.400466	1.320547	83.163900	-460.883686	-15.185154	81.686910	-62.481459	
1002	5.0100	760.014510	1374.737561	0.100347	809.240220	1380.027827	-335.671255	760.613740	1469.597851	-174.524382	749.327046	1288.612398	-180.084244	644.558558	1127.258117	91.796627	794.049677	936.580113	-26.875518	675.871966	1177.125033	-548.934152	795.514522	923.747868	-427.151565	175.938946	1328.179436	-287.942443	420.660306	1269.856655	-437.947654	351.124555	1328.850213	-47.342048	426.583455	1204.337939	-390.278888	377.819879	1258.288841	-81.703417	222.300626	1398.651075	-239.227572	239.315596	1381.444442	-329.584203	303.917077	1211.667705	-25.071070	281.941180	1161.759338	-453.644553	416.794136	1119.588241	-7.880131	499.549656	1084.857185	-8.735473	553.369273	1014.947438	-12.256476	520.767842	1113.322065	-20.277883	638.098319	945.928467	-21.753172	655.885028	929.489253	-153.433139	550.184979	811.059270	-21.239533	513.897430	733.484570	-44.655226	443.821453	683.023946	-53.497312	538.842462	720.992064	-72.744073	341.536007	580.031051	-77.690231	282.161187	604.864390	-128.097819	494.325366	410.705933	-132.072496	421.433776	427.242179	-63.260788	310.205636	1030.286108	-460.496088	340.476440	951.503482	-451.438226	376.312801	954.718022	-443.812204	326.878637	862.854986	-447.936373	331.497555	720.084508	-428.282596	344.006000	706.269592	-300.328379	110.075962	350.945831	-415.755988	48.471344	354.210863	-380.831083	174.906722	187.352952	-444.839496	262.589241	613.759021	-450.700409	242.721579	531.724941	-438.201824	182.891070	466.500556	-434.275389	271.996677	518.320761	-416.258848	262.646392	145.975853	-375.643110	-204.181241	953.634143	-261.036666	1.319890	83.412268	-460.737814	-15.182489	81.699399	-62.452600	
1003	5.0150	759.392381	1371.673692	1.016864	808.555928	1375.452872	-331.148713	761.299023	1467.584022	-171.641997	747.443139	1286.870409	-178.029104	641.771176	1125.378637	92.376271	793.147987	936.692714	-26.155045	676.165853	1177.699107	-548.712332	794.697453	924.003256	-426.348556	176.244982	1332.099065	-286.561405	420.067149	1273.694872	-437.598562	351.619652	1331.437676	-46.804030	425.976334	1207.828496	-390.538755	377.482490	1260.083519	-80.873562	223.247693	1402.376635	-238.272062	240.001193	1385.485878	-328.392493	303.234838	1214.063391	-25.080515	281.714474	1164.986412	-453.947594	418.339712	1122.069226	-4.980792	497.042731	1084.279897	-10.321655	549.745798	1013.494567	-14.361832	519.442197	1111.241253	-24.238486	634.227569	942.559992	-24.318939	651.113519	925.829886	-156.208465	547.626409	806.517492	-22.901862	512.487248	728.100972	-45.582930	443.449438	676.209879	-53.705017	537.781845	715.848308	-73.663865	343.216469	570.806565	-77.000843	282.081300	593.397012	-126.885027	502.016031	407.746368	-131.819048	428.682517	421.177790	-62.748102	312.809389	1032.653134	-461.034133	344.976754	954.619805	-452.261996	380.719077	958.642373	-444.390723	333.569245	865.592029	-449.391192	339.700153	723.407614	-430.460745	352.929860	709.194754	-303.071235	107.943231	360.668119	-416.665486	46.560874	364.987264	-381.345620	168.000978	194.432989	-444.840960	267.832814	618.983029	-452.777118	245.666192	537.473269	-439.760241	184.041283	474.052262	-435.567446	274.490992	522.995231	-417.121516	254.543665	150.448378	-375.899836	-204.148722	953.736744	-260.682638	1.322012	83.566221	-460.669819	-15.191035	81.718578	-62.412588	
1004	5.0200	758.830907	1368.470154	1.947773	808.627637	1370.422428	-328.037268	762.217798	1465.575204	-168.947245	745.458736	1285.239597	-176.322306	638.703317	1123.477069	93.397320	791.769185	936.891876	-25.637664	675.840314	1177.667504	-548.675742	793.381517	924.320869	-425.747947	177.489528	1335.825927	-285.852168	419.265792	1277.615202	-437.430395	352.055694	1333.936396	-45.974996	425.420024	1210.788338	-391.241229	376.983995	1261.597946	-79.842347	224.211073	1405.875277	-237.234309	240.680618	1389.096267	-327.254638	302.427907	1216.053645	-25.146307	281.398915	1167.991695	-454.105179	419.122669	1125.220050	-3.090124	494.130822	1082.800638	-12.021483	545.515748	1011.176477	-16.544109	517.052978	1109.512428	-25.809848	629.818849	938.333788	-27.104017	645.576773	921.182443	-158.602786	544.633223	800.788867	-24.547049	510.740477	721.648316	-46.509664	442.501635	668.564630	-53.900538	536.010525	709.597098	-74.737839	344.122388	560.749918	-76.376016	281.461177	581.069852	-126.108156	508.859896	404.299783	-131.318734	435.262271	414.497582	-62.214532	315.577433	1035.092539	-461.699002	349.799893	957.803570	-453.138670	385.354656	962.689268	-445.002268	340.684196	868.574673	-450.930226	348.436088	726.970558	-432.694960	361.732893	712.202197	-305.513622	106.397916	370.765594	-417.642251	45.185308	376.147591	-381.990381	161.639961	201.903909	-444.870585	273.533140	624.413629	-454.780544	249.076495	543.696894	-441.444057	185.738735	481.996619	-437.002996	277.524846	528.467861	-418.684505	246.834089	155.505553	-376.193630	-204.077893	953.787872	-260.349144	1.300116	83.710412	-460.608928	-15.202264	81.697527	-62.343870	
1005	5.0250	758.281946	1365.263047	2.755787	807.560140	1364.204564	-322.941139	763.317748	1463.639686	-166.637957	743.363112	1284.016764	-175.029498	635.205362	1121.810840	94.076733	790.625531	937.081317	-24.575033	675.040113	1176.937598	-548.699894	792.498450	924.654552	-424.602020	177.469556	1339.744776	-284.150582	418.353952	1281.397869	-437.470082	352.624538	1335.825990	-45.282577	424.787320	1213.359307	-392.679641	376.762984	1262.828566	-79.215569	224.866060	1409.599318	-234.793227	241.242796	1392.570708	-325.891447	301.597766	1217.578810	-25.109857	281.152113	1171.127057	-454.349060	416.768887	1124.802022	-4.195416	490.870418	1080.494631	-13.924493	540.771896	1008.018219	-18.672716	514.293498	1106.978996	-27.194120	624.845793	933.211726	-30.119201	639.838076	915.745702	-161.236845	541.203616	794.064162	-26.267498	508.391600	714.290152	-47.439582	440.998507	659.969486	-54.219723	533.543329	702.519186	-75.971077	344.420562	549.968196	-76.105217	280.257616	568.025115	-125.312358	515.031994	400.414975	-130.661603	440.995708	407.401311	-61.511299	318.558124	1037.597615	-462.448151	354.838703	961.098240	-454.004641	390.176066	966.902678	-445.618905	348.113680	871.694236	-452.463177	357.642490	730.742042	-434.722924	371.632424	715.406576	-308.037360	105.521639	381.044001	-418.757011	44.447546	387.583340	-382.770743	155.908591	209.770696	-444.783960	279.652022	630.027943	-456.870290	252.998587	550.053141	-443.084843	187.949850	490.148724	-438.477461	280.939209	534.215063	-420.251814	239.496485	160.824450	-376.147754	-204.001292	953.877381	-260.042499	1.300209	83.810479	-460.570133	-15.211493	81.672479	-62.306059	
